<?xml version="1.0" encoding="utf-8"?>
<!-- Generator: Adobe Illustrator 27.9.0, SVG Export Plug-In . SVG Version: 6.00 Build 0)  -->
<svg version="1.1" id="Capa_1" xmlns="http://www.w3.org/2000/svg" xmlns:xlink="http://www.w3.org/1999/xlink" x="0px" y="0px"
	 viewBox="0 0 263 263" style="enable-background:new 0 0 263 263;" xml:space="preserve">
<g>
	<path d="M55.1,119c7.5,2.1,14.9,4.1,22.2,6.1c1.4,0.4,2.8,0.4,4.3,0.4c12.1,0.1,24.1,0.2,36.2,0.3c0.1,0,0.2,0,0.4,0
		c0-4.8,0-9.6,0-14.5c-2.8,0-5.4,0-8,0c-7.6,0.1-15.3,0.2-22.9,0.2c-3.9,0-7.4,0.9-10.8,2.6c-2.6,1.2-5.2,2.4-7.9,3.4
		c-2.2,0.8-4.6,0.8-7,0.4c-0.8-0.1-1-0.4-1.1-1.2c-0.2-9.1-0.5-18.1-0.8-27.2c-0.1-4.1-0.5-8.2-0.7-12.5c-2.8,0.9-5.3,1.8-7.9,2.6
		c-2.1,0.7-4.3,1.3-6.4,1.9c-1.2,0.3-2.5,0.3-3.8,0.4c-0.4,0-0.8-0.2-1.2-0.4c0.2-0.4,0.2-1,0.5-1.2c2-1.9,4-3.8,6-5.6
		c8.8-7.5,17.9-14.6,26.2-22.8c6.8-6.7,12.6-14.1,18.5-21.5c1.4-1.8,3-3.4,4.3-5.3c1.5-2.1,3.6-2.7,6-2.9c3-0.2,6,0.5,8.8,1.4
		c4.4,1.4,8.7,2.9,12.5,5.5c1.7,1.2,2.1,2.4,1.4,4.3c-0.4,1.1-1.1,1.6-2.1,2.1c-2.5,1.2-5.1,2.4-7.6,3.8c-1.2,0.7-2.2,1.8-3.3,2.7
		c0,0.1,0.1,0.2,0.1,0.3c1.1,0.1,2.2,0.4,3.2,0.4c7.1,0.1,14.2,0.2,21.3,0.3c3.4,0,6.3-1.5,9.1-3.2c2.4-1.5,4.9-2.9,7.3-4.3
		c2-1.2,3.8-1.2,5.6,0.4c4.7,4.1,8.9,8.5,12.4,13.6c0.3,0.5,0.6,1,0.8,1.5c0.8,1.7,0.1,3.1-1.7,3.6c-1.3,0.3-2.7,0.7-4.1,0.8
		c-3.6,0.2-6.7,1.5-9.9,3.1c-4.7,2.3-9.3,4.7-13.9,7.4c0.2,0,0.5,0,0.7,0c10.9,0,21.7,0.1,32.6,0.1c0.8,0,1.4-0.3,2-0.9
		c2.7-2.6,5.4-5.3,8.1-7.8c1.8-1.6,2.3-1.6,4.3-0.2c2.5,1.7,4.9,3.6,7.2,5.5c2.9,2.4,5.6,5,8.3,7.6c1.5,1.4,1.5,2.4,0.2,4
		c-1.8,2.3-4,4.1-6.4,5.7c-0.7,0.4-0.9,1-0.9,1.8c0,9.5,0,18.9,0,28.4c0,0.8-0.2,1.3-1,1.7c-3.8,2.1-7.7,4.1-12,4.9
		c-1.4,0.3-3,0-4.5-0.2c-0.6-0.1-1.1-0.8-1.5-1.3c-0.3-0.4-0.4-1-0.7-1.5c-0.9-1.6-2.4-2.3-4.3-2.3c-7.3,0-14.6-0.1-21.9-0.2
		c-3.9,0-7.8,0-11.6,0.1c-0.4,0-0.8,0-1.2,0.1c0,4.9,0,9.7,0,14.7c0.4,0,0.9,0,1.3,0c12.4,0,24.9,0,37.3,0c0.9,0,1.5-0.3,2.1-0.8
		c2.8-2.2,5.6-4.4,8.4-6.6c0.4-0.3,0.8-0.5,1.2-0.7c1.8-1.1,3.4-1.2,5.3,0.1c5.1,3.5,9.9,7.3,14.1,11.8c1.7,1.9,1.8,3.2,0.1,4.8
		c-1.4,1.3-2.6,2.9-4,4.3c-0.7,0.7-1.1,1.5-1.1,2.5c-0.1,8.2-0.3,16.4-0.5,24.6c-0.1,2.3-0.3,4.6-0.5,6.9c-0.1,1.1-0.8,1.8-1.7,2.4
		c-4.7,3.2-9.9,4.2-15.4,4.2c-1.6,0-2.1-0.4-2.6-1.8c-0.9-2.6-2.3-3.6-5-3.7c-3.7-0.1-7.3-0.2-11-0.2c-9-0.1-17.9,0-26.9-0.1
		c-0.4,0-0.7,0-1.1,0.1c0,6.1,0,12.1,0,18.4c2.1,0,4.2,0,6.3,0c11.6,0.1,23.2,0.3,34.8,0.4c3.4,0,6.9,0.1,10.3-0.2
		c2.5-0.2,5-0.7,7.5-1.3c3.4-0.8,5.5-3.4,7.1-6.2c1.7-2.7,2.9-5.7,4.4-8.5c0.9-1.6,1.9-3.1,3-4.6c0.2-0.3,0.7-0.5,1-0.7
		c0.2,0.4,0.6,0.8,0.6,1.2c0.2,2.4,0.3,4.9,0.5,7.3c0.2,2.8,0.3,5.6,0.6,8.4c0.2,2,1.6,3.4,2.9,4.8c1.6,1.7,3.4,3.3,5.2,5
		c-3.3,5.7-7.6,10.1-14.4,11.7c-4.8,1.1-9.7,1.1-14.6,1.2c-8.7,0.2-17.4,0.4-26.1,0.4c-7.9,0-15.7-0.3-23.6-0.6
		c-4.2-0.2-8.5-0.4-12.6-1c-7.2-1-12.8-6.9-13.5-14.1c-0.3-3.8-0.2-7.6-0.3-11.4c0-3.3,0-6.6,0-10c-14.4,0-28.6,0-42.9,0
		c-0.1,1.8-0.2,3.7-0.3,5.6c-0.2,3.5-2,6-5.1,7.5c-1.7,0.8-3.5,1.4-5.3,1.5c-3.2,0.2-6.5,0.1-10,0.1c0-1.9,0-4,0-6
		c-0.1-17-0.2-34-0.2-51.1c0-3.8,0.4-7.6,0.6-11.4C54.9,119.8,55,119.4,55.1,119z M139.4,47.6c-0.4,0-0.6,0-0.7,0
		c-11-0.2-22-0.4-32.9-0.5c-0.6,0-1.3,0.3-1.7,0.7c-4,4.1-8.4,7.7-13,11.1c-2.7,2-5.5,3.9-8.3,5.9c2,0.5,4,0.8,6,0.8
		c11.3,0.1,22.6,0,33.9,0c0.5,0,1.1-0.3,1.4-0.7c1.6-1.7,3.1-3.4,4.6-5.1C132.1,55.9,135.7,51.9,139.4,47.6z M75.2,144.7
		c14.4,0,28.7,0,42.9,0c0-2.8,0-5.6,0-8.4c-14.3,0-28.6,0-42.9,0C75.2,139.1,75.2,141.8,75.2,144.7z M182.5,136.2
		c-14.4,0-28.6,0-42.9,0c0,2.9,0,5.7,0,8.5c14.3,0,28.6,0,42.9,0C182.5,141.8,182.5,139.1,182.5,136.2z M139.5,155.2
		c0,2.8,0,5.6,0,8.4c14.3,0,28.6,0,42.9,0c0-2.9,0-5.6,0-8.4C168.1,155.2,153.8,155.2,139.5,155.2z M118,155.4
		c-14.4,0-28.6,0-42.9,0c0,2.8,0,5.5,0,8.2c14.3,0,28.6,0,42.9,0C118,160.9,118,158.2,118,155.4z M79.5,83.3c12.9,0,25.7,0,38.6,0
		c0-2.5,0-4.9,0-7.2c-12.9,0-25.7,0-38.6,0C79.5,78.5,79.5,80.9,79.5,83.3z M177.5,83.3c0-2.4,0-4.7,0-7.1c-12.7,0-25.3,0-37.9,0
		c0,2.4,0,4.8,0,7.1C152.3,83.3,164.8,83.3,177.5,83.3z M79.4,93.9c0,2.3,0,4.5,0,6.6c12.9,0,25.7,0,38.6,0c0-2.2,0-4.4,0-6.6
		C105.2,93.9,92.4,93.9,79.4,93.9z M177.6,93.9c-12.7,0-25.3,0-38,0c0,2.2,0,4.4,0,6.6c12.7,0,25.3,0,38,0
		C177.6,98.3,177.6,96.2,177.6,93.9z"/>
	<path d="M131.5,15c31.1,0,60.3,12.1,82.3,34.1s34.1,51.2,34.1,82.3s-12.1,60.3-34.1,82.3s-51.2,34.1-82.3,34.1
		s-60.3-12.1-82.3-34.1s-34.1-51.2-34.1-82.3s12.1-60.3,34.1-82.3S100.4,15,131.5,15 M131.5,0C58.9,0,0,58.9,0,131.5
		S58.9,263,131.5,263S263,204.1,263,131.5S204.1,0,131.5,0L131.5,0z"/>
</g>
</svg>
